<svg xmlns="http://www.w3.org/2000/svg" xmlns:xlink="http://www.w3.org/1999/xlink" width="500" zoomAndPan="magnify" viewBox="0 0 375 374.999991" height="500" preserveAspectRatio="xMidYMid meet" version="1.0"><defs><g/><clipPath id="1f0566ff55"><path d="M 11 243.222656 L 338 243.222656 L 338 289.722656 L 11 289.722656 Z M 11 243.222656 " clip-rule="nonzero"/></clipPath><clipPath id="c188c0a94f"><path d="M 306.414062 259.488281 L 320.378906 259.488281 L 320.378906 273.449219 L 306.414062 273.449219 Z M 306.414062 259.488281 " clip-rule="nonzero"/></clipPath><clipPath id="e7abce09a1"><path d="M 313.398438 259.488281 C 309.542969 259.488281 306.414062 262.613281 306.414062 266.46875 C 306.414062 270.324219 309.542969 273.449219 313.398438 273.449219 C 317.253906 273.449219 320.378906 270.324219 320.378906 266.46875 C 320.378906 262.613281 317.253906 259.488281 313.398438 259.488281 Z M 313.398438 259.488281 " clip-rule="nonzero"/></clipPath></defs><g fill="#ffffff" fill-opacity="1"><g transform="translate(54.944581, 211.096606)"><g><path d="M 68.40625 -62.691406 L 101.445312 -120.019531 C 88.230469 -127.523438 72.691406 -130.378906 57.867188 -128.058594 C 26.253906 -122.878906 2.320312 -95.554688 2.320312 -62.691406 C 2.320312 -26.074219 31.792969 3.394531 68.40625 3.394531 C 105.019531 3.394531 134.488281 -26.074219 134.488281 -62.691406 Z M 68.40625 -62.691406 "/></g></g></g><g fill="#ffffff" fill-opacity="1"><g transform="translate(191.752816, 211.096606)"><g><path d="M 153.957031 -125.199219 L -4.109375 -125.199219 L 75.011719 8.75 Z M 153.957031 -125.199219 "/></g></g></g><g clip-path="url(#1f0566ff55)"><path fill="#ffffff" d="M 314.078125 289.710938 L 11.90625 289.710938 L 41.125 243.222656 L 314.078125 243.222656 C 326.914062 243.222656 337.324219 253.628906 337.324219 266.464844 C 337.324219 279.304688 326.914062 289.710938 314.078125 289.710938 Z M 314.078125 289.710938 " fill-opacity="1" fill-rule="nonzero"/></g><g clip-path="url(#c188c0a94f)"><g clip-path="url(#e7abce09a1)"><path fill="#1f2122" d="M 306.414062 259.488281 L 320.378906 259.488281 L 320.378906 273.449219 L 306.414062 273.449219 Z M 306.414062 259.488281 " fill-opacity="1" fill-rule="nonzero"/></g></g><g fill="#1f2122" fill-opacity="1"><g transform="translate(83.501692, 272.671672)"><g><path d="M 8.890625 0.21875 C 7.847656 0.21875 6.863281 0.0195312 5.9375 -0.375 C 5.019531 -0.78125 4.210938 -1.332031 3.515625 -2.03125 C 2.828125 -2.738281 2.28125 -3.554688 1.875 -4.484375 C 1.476562 -5.421875 1.28125 -6.425781 1.28125 -7.5 C 1.28125 -8.570312 1.476562 -9.578125 1.875 -10.515625 C 2.28125 -11.453125 2.828125 -12.269531 3.515625 -12.96875 C 4.210938 -13.664062 5.019531 -14.210938 5.9375 -14.609375 C 6.863281 -15.015625 7.847656 -15.21875 8.890625 -15.21875 C 9.921875 -15.21875 10.816406 -15.050781 11.578125 -14.71875 C 12.335938 -14.382812 12.972656 -14.015625 13.484375 -13.609375 C 14.066406 -13.140625 14.570312 -12.601562 15 -12 L 14.25 -11.359375 C 13.882812 -11.878906 13.441406 -12.34375 12.921875 -12.75 C 12.484375 -13.09375 11.925781 -13.410156 11.25 -13.703125 C 10.582031 -14.003906 9.796875 -14.15625 8.890625 -14.15625 C 7.984375 -14.15625 7.128906 -13.984375 6.328125 -13.640625 C 5.535156 -13.296875 4.84375 -12.828125 4.25 -12.234375 C 3.65625 -11.640625 3.191406 -10.9375 2.859375 -10.125 C 2.523438 -9.320312 2.359375 -8.445312 2.359375 -7.5 C 2.359375 -6.5625 2.523438 -5.6875 2.859375 -4.875 C 3.191406 -4.070312 3.65625 -3.375 4.25 -2.78125 C 4.84375 -2.1875 5.535156 -1.71875 6.328125 -1.375 C 7.128906 -1.03125 7.984375 -0.859375 8.890625 -0.859375 C 9.753906 -0.859375 10.507812 -0.984375 11.15625 -1.234375 C 11.8125 -1.484375 12.359375 -1.765625 12.796875 -2.078125 C 13.304688 -2.453125 13.757812 -2.867188 14.15625 -3.328125 L 14.15625 -6.4375 L 10.296875 -6.4375 L 10.296875 -7.5 L 15.21875 -7.5 L 15.21875 -3 C 14.757812 -2.394531 14.21875 -1.859375 13.59375 -1.390625 C 13.050781 -0.972656 12.390625 -0.597656 11.609375 -0.265625 C 10.828125 0.0546875 9.921875 0.21875 8.890625 0.21875 Z M 8.890625 0.21875 "/></g></g></g><g fill="#1f2122" fill-opacity="1"><g transform="translate(106.863784, 272.671672)"><g><path d="M 8.03125 0.21875 C 7.207031 0.21875 6.429688 0.0664062 5.703125 -0.234375 C 4.984375 -0.535156 4.359375 -0.953125 3.828125 -1.484375 C 3.304688 -2.023438 2.894531 -2.660156 2.59375 -3.390625 C 2.289062 -4.128906 2.140625 -4.925781 2.140625 -5.78125 L 2.140625 -15 L 3.21875 -15 L 3.21875 -5.78125 C 3.21875 -5.050781 3.335938 -4.382812 3.578125 -3.78125 C 3.816406 -3.1875 4.148438 -2.671875 4.578125 -2.234375 C 5.015625 -1.804688 5.523438 -1.46875 6.109375 -1.21875 C 6.691406 -0.976562 7.332031 -0.859375 8.03125 -0.859375 C 8.738281 -0.859375 9.382812 -0.976562 9.96875 -1.21875 C 10.550781 -1.46875 11.054688 -1.804688 11.484375 -2.234375 C 11.921875 -2.671875 12.257812 -3.1875 12.5 -3.78125 C 12.738281 -4.382812 12.859375 -5.050781 12.859375 -5.78125 L 12.859375 -15 L 13.9375 -15 L 13.9375 -5.78125 C 13.9375 -4.925781 13.785156 -4.128906 13.484375 -3.390625 C 13.179688 -2.660156 12.765625 -2.023438 12.234375 -1.484375 C 11.710938 -0.953125 11.085938 -0.535156 10.359375 -0.234375 C 9.640625 0.0664062 8.863281 0.21875 8.03125 0.21875 Z M 8.03125 0.21875 "/></g></g></g><g fill="#1f2122" fill-opacity="1"><g transform="translate(129.36856, 272.671672)"><g><path d="M 0.53125 -15 L 1.71875 -15 L 6.96875 -1.609375 L 12.21875 -15 L 13.390625 -15 L 7.5 0 L 6.4375 0 Z M 0.53125 -15 "/></g></g></g><g fill="#1f2122" fill-opacity="1"><g transform="translate(149.730035, 272.671672)"><g><path d="M 2.359375 -15 L 3.4375 -15 L 3.4375 0 L 2.359375 0 Z M 2.359375 -15 "/></g></g></g><g fill="#1f2122" fill-opacity="1"><g transform="translate(161.946975, 272.671672)"><g><path d="M 8.890625 0.21875 C 7.847656 0.21875 6.863281 0.0195312 5.9375 -0.375 C 5.019531 -0.78125 4.210938 -1.332031 3.515625 -2.03125 C 2.828125 -2.738281 2.28125 -3.554688 1.875 -4.484375 C 1.476562 -5.421875 1.28125 -6.425781 1.28125 -7.5 C 1.28125 -8.570312 1.476562 -9.578125 1.875 -10.515625 C 2.28125 -11.453125 2.828125 -12.269531 3.515625 -12.96875 C 4.210938 -13.664062 5.019531 -14.210938 5.9375 -14.609375 C 6.863281 -15.015625 7.847656 -15.21875 8.890625 -15.21875 C 9.921875 -15.21875 10.816406 -15.050781 11.578125 -14.71875 C 12.335938 -14.382812 12.972656 -14.015625 13.484375 -13.609375 C 14.066406 -13.140625 14.570312 -12.601562 15 -12 L 14.25 -11.359375 C 13.882812 -11.878906 13.441406 -12.34375 12.921875 -12.75 C 12.484375 -13.09375 11.925781 -13.410156 11.25 -13.703125 C 10.582031 -14.003906 9.796875 -14.15625 8.890625 -14.15625 C 7.984375 -14.15625 7.128906 -13.984375 6.328125 -13.640625 C 5.535156 -13.296875 4.84375 -12.828125 4.25 -12.234375 C 3.65625 -11.640625 3.191406 -10.9375 2.859375 -10.125 C 2.523438 -9.320312 2.359375 -8.445312 2.359375 -7.5 C 2.359375 -6.5625 2.523438 -5.6875 2.859375 -4.875 C 3.191406 -4.070312 3.65625 -3.375 4.25 -2.78125 C 4.84375 -2.1875 5.535156 -1.71875 6.328125 -1.375 C 7.128906 -1.03125 7.984375 -0.859375 8.890625 -0.859375 C 9.804688 -0.859375 10.601562 -1 11.28125 -1.28125 C 11.96875 -1.570312 12.535156 -1.894531 12.984375 -2.25 C 13.515625 -2.644531 13.972656 -3.109375 14.359375 -3.640625 L 15.109375 -3 C 14.671875 -2.394531 14.144531 -1.859375 13.53125 -1.390625 C 13 -0.972656 12.347656 -0.597656 11.578125 -0.265625 C 10.816406 0.0546875 9.921875 0.21875 8.890625 0.21875 Z M 8.890625 0.21875 "/></g></g></g><g fill="#1f2122" fill-opacity="1"><g transform="translate(184.451756, 272.671672)"><g><path d="M 5.359375 -13.9375 L 0.421875 -13.9375 L 0.421875 -15 L 11.359375 -15 L 11.359375 -13.9375 L 6.4375 -13.9375 L 6.4375 0 L 5.359375 0 Z M 5.359375 -13.9375 "/></g></g></g><g fill="#1f2122" fill-opacity="1"><g transform="translate(202.669925, 272.671672)"><g><path d="M 8.890625 0.21875 C 7.847656 0.21875 6.863281 0.0195312 5.9375 -0.375 C 5.019531 -0.78125 4.210938 -1.332031 3.515625 -2.03125 C 2.828125 -2.738281 2.28125 -3.554688 1.875 -4.484375 C 1.476562 -5.421875 1.28125 -6.425781 1.28125 -7.5 C 1.28125 -8.570312 1.476562 -9.578125 1.875 -10.515625 C 2.28125 -11.453125 2.828125 -12.269531 3.515625 -12.96875 C 4.210938 -13.664062 5.019531 -14.210938 5.9375 -14.609375 C 6.863281 -15.015625 7.847656 -15.21875 8.890625 -15.21875 C 9.941406 -15.21875 10.925781 -15.015625 11.84375 -14.609375 C 12.769531 -14.210938 13.578125 -13.664062 14.265625 -12.96875 C 14.960938 -12.269531 15.507812 -11.453125 15.90625 -10.515625 C 16.300781 -9.578125 16.5 -8.570312 16.5 -7.5 C 16.5 -6.425781 16.300781 -5.421875 15.90625 -4.484375 C 15.507812 -3.554688 14.960938 -2.738281 14.265625 -2.03125 C 13.578125 -1.332031 12.769531 -0.78125 11.84375 -0.375 C 10.925781 0.0195312 9.941406 0.21875 8.890625 0.21875 Z M 8.890625 -0.859375 C 9.804688 -0.859375 10.660156 -1.03125 11.453125 -1.375 C 12.242188 -1.71875 12.929688 -2.1875 13.515625 -2.78125 C 14.109375 -3.375 14.578125 -4.070312 14.921875 -4.875 C 15.265625 -5.6875 15.4375 -6.5625 15.4375 -7.5 C 15.4375 -8.445312 15.265625 -9.320312 14.921875 -10.125 C 14.578125 -10.9375 14.109375 -11.640625 13.515625 -12.234375 C 12.929688 -12.828125 12.242188 -13.296875 11.453125 -13.640625 C 10.660156 -13.984375 9.804688 -14.15625 8.890625 -14.15625 C 7.984375 -14.15625 7.128906 -13.984375 6.328125 -13.640625 C 5.535156 -13.296875 4.84375 -12.828125 4.25 -12.234375 C 3.65625 -11.640625 3.191406 -10.9375 2.859375 -10.125 C 2.523438 -9.320312 2.359375 -8.445312 2.359375 -7.5 C 2.359375 -6.5625 2.523438 -5.6875 2.859375 -4.875 C 3.191406 -4.070312 3.65625 -3.375 4.25 -2.78125 C 4.84375 -2.1875 5.535156 -1.71875 6.328125 -1.375 C 7.128906 -1.03125 7.984375 -0.859375 8.890625 -0.859375 Z M 8.890625 -0.859375 "/></g></g></g><g fill="#1f2122" fill-opacity="1"><g transform="translate(226.889328, 272.671672)"><g><path d="M 2.359375 -15 L 8.03125 -15 C 8.707031 -15 9.328125 -14.882812 9.890625 -14.65625 C 10.453125 -14.425781 10.9375 -14.113281 11.34375 -13.71875 C 11.757812 -13.332031 12.078125 -12.867188 12.296875 -12.328125 C 12.523438 -11.796875 12.640625 -11.222656 12.640625 -10.609375 C 12.640625 -10.179688 12.59375 -9.789062 12.5 -9.4375 C 12.414062 -9.09375 12.289062 -8.78125 12.125 -8.5 C 11.96875 -8.21875 11.789062 -7.972656 11.59375 -7.765625 C 11.394531 -7.554688 11.1875 -7.375 10.96875 -7.21875 C 10.488281 -6.851562 9.941406 -6.59375 9.328125 -6.4375 L 12.96875 0 L 11.796875 0 L 8.25 -6.21875 L 3.4375 -6.21875 L 3.4375 0 L 2.359375 0 Z M 8.03125 -7.28125 C 8.5625 -7.28125 9.046875 -7.363281 9.484375 -7.53125 C 9.921875 -7.695312 10.296875 -7.925781 10.609375 -8.21875 C 10.921875 -8.507812 11.160156 -8.859375 11.328125 -9.265625 C 11.492188 -9.671875 11.578125 -10.117188 11.578125 -10.609375 C 11.578125 -11.097656 11.492188 -11.546875 11.328125 -11.953125 C 11.160156 -12.359375 10.921875 -12.707031 10.609375 -13 C 10.296875 -13.289062 9.921875 -13.519531 9.484375 -13.6875 C 9.046875 -13.851562 8.5625 -13.9375 8.03125 -13.9375 L 3.4375 -13.9375 L 3.4375 -7.28125 Z M 8.03125 -7.28125 "/></g></g></g><g fill="#1f2122" fill-opacity="1"><g transform="translate(247.465132, 272.671672)"><g><path d="M 5.890625 -5.25 L 0.328125 -15 L 1.609375 -15 L 6.4375 -6.4375 L 11.25 -15 L 12.546875 -15 L 6.96875 -5.25 L 6.96875 0 L 5.890625 0 Z M 5.890625 -5.25 "/></g></g></g></svg>